# xmcd CD database file
#
# Track frame offsets:
#	150
#	8877
#	38372
#	62770
#	100205
#	126705
#	147200
#	158762
#	189080
#
# Disc length: 2736 seconds
#
# Revision: 2
# Processed by: cddbd v1.4PL0 Copyright (c) Steve Scherf et al.
# Submitted via: CDex 1.50Beta7
#
DISCID=6f0aae09
DTITLE=Kazumi WATANABE - KYLYN
DYEAR=1979
DGENRE=Jazz
TTITLE0=199X
TTITLE1=Sonic Boom
TTITLE2=Water Ways Flow Back Ward Again
TTITLE3=Milestones
TTITLE4=E-Day Project
TTITLE5=Akasaka Moon
TTITLE6=Kylyn
TTITLE7=I'll Be There
TTITLE8=Mother Terra
EXTD=YEAR: 1979
EXTT0=
EXTT1=
EXTT2=
EXTT3=
EXTT4=
EXTT5=
EXTT6=
EXTT7=
EXTT8=
PLAYORDER=
